

A tale of infidelity, deceit, greed, and murder

Genre:Thriller
Language:English  http://www.imdb.com/title/tt1135085/
Source:DVD
 
http://www.starshare.ro/bitbucket/Cat.City.2008.DvDRip.H264.Feel-Free.mp4_snapshot_00.15.15_%5B2010.10.05_08.12.16%5D.jpg
 
http://www.starshare.ro/bitbucket/Cat.City.2008.DvDRip.H264.Feel-Free.mp4_snapshot_00.19.04_%5B2010.10.05_08.12.19%5D.jpg
 
http://www.starshare.ro/bitbucket/Cat.City.2008.DvDRip.H264.Feel-Free.mp4_snapshot_00.42.34_%5B2010.10.05_08.12.23%5D.jpg
 
http://www.youtube.com/watch?v=Em5FVzAgw4c&feature=player_embedded

General
Complete name :Cat.City.2008.DvDRip.H264.Feel-Free
Format : MPEG-4
Format profile : Base Media
Codec ID : isom
File size : 742 MiB
Duration : 1h 30mn
Overall bit rate : 1 152 Kbps
Video #2
Codec ID : avc1
Codec ID/Info : Advanced Video Coding
Duration : 1h 30mn
Bit rate mode : Variable
Bit rate : 985 Kbps
Width : 720 pixels
Height : 384 pixels
Display aspect ratio : 1.875
Frame rate mode : Constant
Frame rate : 23.976 fps
Original frame rate : 23.000 fps
Resolution : 24 bits
Colorimetry : 4:2:0
Scan type : Progressive
Bits/(Pixel*Frame) : 0.149
Stream size : 635 MiB (86%)
Audio #1
ID : 1
Format : AAC
Format/Info : Advanced Audio Codec
Format version : Version 4
Format profile : LC
Format settings, SBR : No
Codec ID : 40
Duration : 1h 30mn
Bit rate mode : Constant
Bit rate : 160 Kbps
Channel(s) : 2 channels
Channel positions : L R
Sampling rate : 48.0 KHz
Resolution : 16 bits
Stream size : 103 MiB (14%)